Information:
Format                           : Matroska
Format version                   : Version 2
File size                        : 4.00 GiB
Duration                         : 1h 57mn
Overall bit rate                 : 4 885 Kbps
Encoded date                     : UTC 2012-03-06 11:49:55
Writing application              : mkvmerge v5.3.0 ('I could have danced') built on Feb  9 2012 10:38:07
Writing library                  : libebml v1.2.3 + libmatroska v1.3.0

Video
ID                               : 1
Format                           : AVC
Format/Info                      : Advanced Video Codec
Format profile                   : High@L5.1
Format settings, CABAC           : Yes
Format settings, ReFrames        : 6 frames
Codec ID                         : V_MPEG4/ISO/AVC
Duration                         : 1h 57mn
Bit rate                         : 4 694 Kbps
Width                            : 1 920 pixels
Height                           : 816 pixels
Display aspect ratio             : 2.35:1
Frame rate                       : 23.976 fps
Color space                      : YUV
Chroma subsampling               : 4:2:0
Bit depth                        : 8 bits
Scan type                        : Progressive
Bits/(Pixel*Frame)               : 0.125
Stream size                      : 3.76 GiB (94%)
Writing library                  : x264 core 120 r2164 da19765

Audio
ID                               : 2
Format                           : AC-3
Format/Info                      : Audio Coding 3
Mode extension                   : CM (complete main)
Codec ID                         : A_AC3
Duration                         : 1h 57mn
Bit rate mode                    : Constant
Bit rate                         : 192 Kbps
Channel(s)                       : 2 channels
Channel positions                : Front: L R
Sampling rate                    : 48.0 KHz
Bit depth                        : 16 bits
Compression mode                 : Lossy
Stream size                      : 161 MiB (4%)